# Blender v2.74 (sub 0) OBJ File: ''
# www.blender.org
mtllib asteroid2.mtl
o Icosphere.001_Icosphere.002
v 0.445189 -1.787848 0.153638
v 1.084832 -1.299209 0.618360
v 0.200872 -1.299209 0.905582
v -0.345452 -1.299206 0.153638
v 0.200872 -1.299209 -0.598306
v 1.084832 -1.299209 -0.311085
v 0.689506 -0.508556 0.905582
v -0.194454 -0.508557 0.618360
v -0.431915 -0.419363 -0.178020
v 0.689506 -0.508556 -0.598306
v 1.496130 -0.508560 0.153638
v 0.445189 -0.019918 0.153638
v 0.301584 -1.655831 0.595616
v 0.821159 -1.655831 0.426793
v 0.677556 -1.368616 0.868775
v 1.102505 -1.522347 0.432366
v 0.490863 -1.862709 -0.119518
v -0.019538 -1.655829 0.153638
v -0.163146 -1.368615 0.595617
v 0.301584 -1.655831 -0.288341
v -0.163146 -1.368615 -0.288342
v 0.691929 -1.388311 -0.726477
v 1.274164 -0.813209 0.773950
v 1.285890 -0.903883 -0.119519
v 0.445189 -0.903883 1.037602
v 0.481634 -0.903883 0.868780
v -0.395513 -0.903883 0.426794
v -0.091057 -0.757829 0.643526
v -0.074393 -0.903883 -0.773258
v -0.673855 -0.903883 -0.119519
v 0.964771 -0.903883 -0.561505
v 0.445189 -0.903883 -0.919478
v 1.053524 -0.439151 0.595617
v 0.212822 -0.439149 0.868775
v -0.306754 -0.439151 0.153638
v 0.212822 -0.439149 -0.806753
v 1.424300 -0.439151 -0.288342
v 0.588794 -0.151934 0.595616
v 0.909915 -0.151937 0.153638
v 0.069219 -0.151935 0.426793
v 0.069219 0.193842 -0.119518
v 0.588794 -0.151934 -0.288341
vn 0.102400 -0.943500 0.315100
vn 0.271500 -0.603500 0.749800
vn -0.268000 -0.943500 0.194700
vn -0.268000 -0.943500 -0.194700
vn -0.757500 -0.650800 0.051700
vn 0.659600 -0.449800 0.602200
vn 0.024700 -0.330400 0.943500
vn -0.889700 -0.330400 0.315100
vn -0.447100 -0.603500 -0.660200
vn 0.733300 -0.190700 -0.652700
vn 0.151000 -0.354300 0.922900
vn -0.575200 0.083700 0.813700
vn -0.819600 -0.392300 0.417600
vn -0.230800 -0.523600 -0.820100
vn 0.802600 -0.125600 -0.583100
vn 0.408900 0.661700 0.628400
vn -0.471300 0.661700 0.583100
vn -0.748900 0.581800 0.317300
vn 0.378200 0.665800 -0.643200
vn 0.519100 0.853300 0.049600
vn 0.268000 0.943500 -0.194700
vn 0.316400 0.920400 -0.229900
vn 0.231900 0.674600 -0.700800
vn 0.534800 0.841400 -0.077600
vn 0.288200 0.733600 -0.615500
vn -0.581800 0.534000 -0.613400
vn 0.091500 0.841400 0.532600
vn -0.718800 0.587400 0.371800
vn -0.700200 0.661700 0.268000
vn -0.102400 0.943500 0.315100
vn -0.187600 0.794700 0.577300
vn 0.038500 0.661700 0.748800
vn 0.268000 0.943500 0.194700
vn 0.491100 0.794700 0.356800
vn 0.484800 0.796900 0.360300
vn 0.915700 -0.346600 -0.203200
vn 0.736500 -0.413700 -0.535100
vn 0.369100 0.171900 -0.913400
vn 0.415200 0.405200 -0.814500
vn -0.269600 0.097600 -0.958000
vn -0.648000 0.351800 -0.675500
vn -0.824900 0.452800 0.338300
vn -0.816500 0.400400 0.416000
vn -0.905000 0.330400 0.268000
vn -0.504500 -0.123000 0.854600
vn -0.592900 -0.003900 0.805300
vn -0.024700 0.330400 0.943500
vn 0.637800 -0.396800 0.660100
vn 0.054200 0.455600 0.888500
vn 0.608500 0.604200 0.514500
vn 0.540600 0.303400 -0.784700
vn 0.566900 -0.039100 -0.822800
vn -0.302100 -0.481600 -0.822700
vn -0.708500 0.275400 -0.649700
vn -0.641900 -0.491500 -0.588600
vn -0.693700 -0.698300 -0.176500
vn -0.530600 -0.135600 0.836700
vn -0.581500 0.004800 0.813600
vn -0.650100 0.017100 0.759600
vn 0.862400 -0.470800 0.186200
vn 0.903800 0.381000 0.195100
vn 0.487000 0.205300 0.848900
vn 0.862700 -0.501800 0.062300
vn 0.966800 -0.252500 0.038300
vn 0.908300 -0.394200 -0.139900
vn 0.568500 -0.728900 -0.381400
vn -0.223300 -0.730700 -0.645100
vn -0.298700 -0.672700 -0.676900
vn -0.408900 -0.661700 -0.628400
vn -0.491100 -0.794700 -0.356800
vn -0.724000 -0.661700 -0.194700
vn -0.724000 -0.661700 0.194700
vn -0.491100 -0.794700 0.356800
vn -0.408900 -0.661700 0.628400
vn 0.627100 -0.741800 -0.237600
vn 0.425800 -0.900900 0.083700
vn 0.128900 -0.950700 0.282100
vn -0.038500 -0.661700 0.748800
vn 0.187600 -0.794700 0.577300
vn 0.471300 -0.661700 0.583100
usemtl None
s off
f 1//1 14//1 13//1
f 2//2 14//2 16//2
f 1//3 13//3 18//3
f 1//4 18//4 20//4
f 1//5 20//5 17//5
f 2//6 16//6 23//6
f 3//7 15//7 25//7
f 4//8 19//8 27//8
f 5//9 21//9 29//9
f 6//10 22//10 31//10
f 2//11 23//11 26//11
f 3//12 25//12 28//12
f 4//13 27//13 30//13
f 5//14 29//14 32//14
f 6//15 31//15 24//15
f 7//16 33//16 38//16
f 8//17 34//17 40//17
f 9//18 35//18 41//18
f 10//19 36//19 42//19
f 11//20 37//20 39//20
f 39//21 42//21 12//21
f 39//22 37//22 42//22
f 37//23 10//23 42//23
f 42//24 41//24 12//24
f 42//25 36//25 41//25
f 36//26 9//26 41//26
f 41//27 40//27 12//27
f 41//28 35//28 40//28
f 35//29 8//29 40//29
f 40//30 38//30 12//30
f 40//31 34//31 38//31
f 34//32 7//32 38//32
f 38//33 39//33 12//33
f 38//34 33//34 39//34
f 33//35 11//35 39//35
f 24//36 37//36 11//36
f 24//37 31//37 37//37
f 31//38 10//38 37//38
f 32//39 36//39 10//39
f 32//40 29//40 36//40
f 29//41 9//41 36//41
f 30//42 35//42 9//42
f 30//43 27//43 35//43
f 27//44 8//44 35//44
f 28//45 34//45 8//45
f 28//46 25//46 34//46
f 25//47 7//47 34//47
f 26//48 33//48 7//48
f 26//49 23//49 33//49
f 23//50 11//50 33//50
f 31//51 32//51 10//51
f 31//52 22//52 32//52
f 22//53 5//53 32//53
f 29//54 30//54 9//54
f 29//55 21//55 30//55
f 21//56 4//56 30//56
f 27//57 28//57 8//57
f 27//58 19//58 28//58
f 19//59 3//59 28//59
f 25//60 26//60 7//60
f 25//61 15//61 26//61
f 15//62 2//62 26//62
f 23//63 24//63 11//63
f 23//64 16//64 24//64
f 16//65 6//65 24//65
f 17//66 22//66 6//66
f 17//67 20//67 22//67
f 20//68 5//68 22//68
f 20//69 21//69 5//69
f 20//70 18//70 21//70
f 18//71 4//71 21//71
f 18//72 19//72 4//72
f 18//73 13//73 19//73
f 13//74 3//74 19//74
f 16//75 17//75 6//75
f 16//76 14//76 17//76
f 14//77 1//77 17//77
f 13//78 15//78 3//78
f 13//79 14//79 15//79
f 14//80 2//80 15//80
