# Blender v2.74 (sub 0) OBJ File: 'asteroid2.blend'
# www.blender.org
mtllib asteroid2.mtl
o Icosphere.001_Icosphere.002
v 0.000000 -0.883965 -2.743287
v 0.639643 -0.395326 -2.278564
v -0.244317 -0.395327 -1.991343
v -0.790641 -0.395323 -2.743287
v -0.244317 -0.395327 -3.495231
v 0.639643 -0.395326 -3.208009
v 0.244317 0.395327 -1.991343
v -0.639643 0.395326 -2.278564
v -0.877104 0.484520 -3.074944
v 0.244317 0.395327 -3.495231
v 1.050941 0.395323 -2.743287
v 0.000000 0.883965 -2.743287
v -0.143605 -0.751948 -2.301309
v 0.375970 -0.751948 -2.470132
v 0.232367 -0.464733 -2.028149
v 0.657316 -0.618464 -2.464558
v 0.045674 -0.958826 -3.016442
v -0.464727 -0.751946 -2.743287
v -0.608335 -0.464732 -2.301307
v -0.143605 -0.751948 -3.185265
v -0.608335 -0.464732 -3.185266
v 0.246740 -0.484428 -3.623401
v 0.828975 0.090674 -2.122975
v 0.840702 0.000000 -3.016443
v 0.000000 0.000000 -1.859322
v 0.036445 0.000000 -2.028145
v -0.840702 0.000000 -2.470131
v -0.536246 0.146054 -2.253398
v -0.519582 0.000000 -3.670182
v -1.119044 0.000000 -3.016443
v 0.519582 0.000000 -3.458429
v 0.000000 0.000000 -3.816403
v 0.608335 0.464732 -2.301307
v -0.232367 0.464733 -2.028149
v -0.751943 0.464732 -2.743287
v -0.232367 0.464733 -3.703677
v 0.979111 0.464732 -3.185266
v 0.143605 0.751948 -2.301309
v 0.464727 0.751946 -2.743287
v -0.375970 0.751948 -2.470132
v -0.375970 1.097725 -3.016442
v 0.143605 0.751948 -3.185265
vn -0.133300 -0.976800 0.167400
vn 0.323700 -0.867200 0.378400
vn -0.162500 -0.850600 0.500000
vn 0.493300 -0.440800 0.749800
vn 0.693200 -0.660900 0.287400
vn -0.525700 -0.850600 0.000000
vn -0.383700 -0.784900 -0.486500
vn -0.091100 -0.977700 -0.189300
vn 0.660300 0.030200 0.750400
vn -0.360200 -0.349600 0.864900
vn 0.350100 -0.381600 0.855400
vn 0.231900 -0.004600 0.972700
vn -0.806000 -0.582500 0.105400
vn -0.693200 -0.449600 0.563300
vn -0.832800 -0.004900 0.553600
vn -0.347700 -0.600400 -0.720100
vn -0.592500 -0.664800 -0.454800
vn -0.540400 -0.148100 -0.828300
vn 0.785100 -0.460600 -0.414000
vn 0.287500 -0.537900 -0.792400
vn 0.636100 -0.024900 -0.771200
vn 0.801000 -0.041600 0.597100
vn -0.565400 -0.046300 0.823500
vn -0.988400 -0.083100 -0.127100
vn 0.128400 -0.048000 -0.990500
vn 0.894800 -0.361300 -0.262000
vn 0.439100 0.212600 0.872900
vn 0.471900 0.625100 0.621800
vn 0.162500 0.850600 0.500000
vn -0.704900 0.323300 0.631300
vn -0.331700 0.443100 0.832800
vn -0.404200 0.786600 0.466800
vn -0.830600 0.518400 -0.203200
vn -0.792300 0.510800 0.333700
vn -0.220800 0.969200 -0.109100
vn 0.393800 0.484500 -0.781100
vn -0.117400 0.507600 -0.853500
vn 0.340200 0.823900 -0.453200
vn 0.953000 0.264200 0.148000
vn 0.789800 0.366300 -0.492000
vn 0.396500 0.915000 0.074200
vn 0.233000 0.957600 0.169300
usemtl None
s 1
f 1//1 14//2 13//3
f 2//4 14//2 16//5
f 1//1 13//3 18//6
f 1//1 18//6 20//7
f 1//1 20//7 17//8
f 2//4 16//5 23//9
f 3//10 15//11 25//12
f 4//13 19//14 27//15
f 5//16 21//17 29//18
f 6//19 22//20 31//21
f 2//4 23//9 26//22
f 3//10 25//12 28//23
f 4//13 27//15 30//24
f 5//16 29//18 32//25
f 6//19 31//21 24//26
f 7//27 33//28 38//29
f 8//30 34//31 40//32
f 9//33 35//34 41//35
f 10//36 36//37 42//38
f 11//39 37//40 39//41
f 39//41 42//38 12//42
f 39//41 37//40 42//38
f 37//40 10//36 42//38
f 42//38 41//35 12//42
f 42//38 36//37 41//35
f 36//37 9//33 41//35
f 41//35 40//32 12//42
f 41//35 35//34 40//32
f 35//34 8//30 40//32
f 40//32 38//29 12//42
f 40//32 34//31 38//29
f 34//31 7//27 38//29
f 38//29 39//41 12//42
f 38//29 33//28 39//41
f 33//28 11//39 39//41
f 24//26 37//40 11//39
f 24//26 31//21 37//40
f 31//21 10//36 37//40
f 32//25 36//37 10//36
f 32//25 29//18 36//37
f 29//18 9//33 36//37
f 30//24 35//34 9//33
f 30//24 27//15 35//34
f 27//15 8//30 35//34
f 28//23 34//31 8//30
f 28//23 25//12 34//31
f 25//12 7//27 34//31
f 26//22 33//28 7//27
f 26//22 23//9 33//28
f 23//9 11//39 33//28
f 31//21 32//25 10//36
f 31//21 22//20 32//25
f 22//20 5//16 32//25
f 29//18 30//24 9//33
f 29//18 21//17 30//24
f 21//17 4//13 30//24
f 27//15 28//23 8//30
f 27//15 19//14 28//23
f 19//14 3//10 28//23
f 25//12 26//22 7//27
f 25//12 15//11 26//22
f 15//11 2//4 26//22
f 23//9 24//26 11//39
f 23//9 16//5 24//26
f 16//5 6//19 24//26
f 17//8 22//20 6//19
f 17//8 20//7 22//20
f 20//7 5//16 22//20
f 20//7 21//17 5//16
f 20//7 18//6 21//17
f 18//6 4//13 21//17
f 18//6 19//14 4//13
f 18//6 13//3 19//14
f 13//3 3//10 19//14
f 16//5 17//8 6//19
f 16//5 14//2 17//8
f 14//2 1//1 17//8
f 13//3 15//11 3//10
f 13//3 14//2 15//11
f 14//2 2//4 15//11
