# Blender v2.77 (sub 0) OBJ File: 'Shuttle.blend'
# www.blender.org
mtllib Shuttle.mtl
o Cube.004_Cube.010
v -8.093502 0.000000 0.096519
v -8.093502 -0.333580 0.430099
v -8.093502 0.333580 0.430099
v -8.093502 0.000000 0.763679
v -7.970352 0.000000 0.096519
v -7.970352 -0.333580 0.430099
v -7.970352 0.333580 0.430099
v -7.970352 0.000000 0.763679
v -8.093502 0.000000 0.182621
v -8.093502 -0.247478 0.430099
v -8.093502 0.000000 0.677577
v -8.093502 0.247478 0.430099
v -8.047913 0.000000 0.182621
v -8.047913 -0.247478 0.430099
v -8.047913 0.000000 0.677577
v -8.047913 0.247478 0.430099
v -8.002703 0.000000 0.341325
v -8.002703 -0.088774 0.430099
v -8.002703 0.000000 0.518873
v -8.002703 0.088774 0.430099
v -6.193905 0.000000 0.556653
v -6.193905 0.126554 0.430099
v -6.193905 -0.126554 0.430099
v -6.193905 0.000000 0.303545
vn -1.0000 0.0000 0.0000
vn 0.0000 0.7071 0.7071
vn 0.0821 0.7047 0.7047
vn 0.0000 -0.7071 -0.7071
vn 0.0000 0.7071 -0.7071
vn 0.0000 -0.7071 0.7071
vn -0.9276 -0.2642 -0.2642
vn -0.9276 0.2642 0.2642
vn -0.9276 -0.2642 0.2642
vn -0.9276 0.2642 -0.2642
vn 1.0000 0.0000 0.0000
vn 0.0821 -0.7047 -0.7047
vn 0.0821 0.7047 -0.7047
vn 0.0821 -0.7047 0.7047
usemtl None
s off
f 1//1 2//1 10//1 9//1
f 4//2 8//2 7//2 3//2
f 7//3 8//3 21//3 22//3
f 6//4 2//4 1//4 5//4
f 1//5 3//5 7//5 5//5
f 6//6 8//6 4//6 2//6
f 11//4 12//4 16//4 15//4
f 3//1 1//1 9//1 12//1
f 2//1 4//1 11//1 10//1
f 4//1 3//1 12//1 11//1
f 15//7 16//7 20//7 19//7
f 9//2 10//2 14//2 13//2
f 12//6 9//6 13//6 16//6
f 10//5 11//5 15//5 14//5
f 18//1 19//1 20//1 17//1
f 13//8 14//8 18//8 17//8
f 16//9 13//9 17//9 20//9
f 14//10 15//10 19//10 18//10
f 21//11 23//11 24//11 22//11
f 6//12 5//12 24//12 23//12
f 5//13 7//13 22//13 24//13
f 8//14 6//14 23//14 21//14
o Cube.003_Cube.009
v -8.093502 0.000000 -0.763679
v -8.093502 -0.333580 -0.430099
v -8.093502 0.333580 -0.430099
v -8.093502 0.000000 -0.096519
v -7.970352 0.000000 -0.763679
v -7.970352 -0.333580 -0.430099
v -7.970352 0.333580 -0.430099
v -7.970352 0.000000 -0.096519
v -8.093502 0.000000 -0.677577
v -8.093502 -0.247478 -0.430099
v -8.093502 0.000000 -0.182621
v -8.093502 0.247478 -0.430099
v -8.047913 0.000000 -0.677577
v -8.047913 -0.247478 -0.430099
v -8.047913 0.000000 -0.182621
v -8.047913 0.247478 -0.430099
v -8.002703 0.000000 -0.518873
v -8.002703 -0.088774 -0.430099
v -8.002703 0.000000 -0.341325
v -8.002703 0.088774 -0.430099
v -6.193905 0.000000 -0.303545
v -6.193905 0.126554 -0.430099
v -6.193905 -0.126554 -0.430099
v -6.193905 0.000000 -0.556653
vn -1.0000 0.0000 0.0000
vn 0.0000 0.7071 0.7071
vn 0.0821 0.7047 0.7047
vn 0.0000 -0.7071 -0.7071
vn 0.0000 0.7071 -0.7071
vn 0.0000 -0.7071 0.7071
vn -0.9276 -0.2642 -0.2642
vn -0.9276 0.2642 0.2642
vn -0.9276 -0.2642 0.2642
vn -0.9276 0.2642 -0.2642
vn 1.0000 0.0000 0.0000
vn 0.0821 -0.7047 -0.7047
vn 0.0821 0.7047 -0.7047
vn 0.0821 -0.7047 0.7047
usemtl None
s off
f 25//15 26//15 34//15 33//15
f 28//16 32//16 31//16 27//16
f 31//17 32//17 45//17 46//17
f 30//18 26//18 25//18 29//18
f 25//19 27//19 31//19 29//19
f 30//20 32//20 28//20 26//20
f 35//18 36//18 40//18 39//18
f 27//15 25//15 33//15 36//15
f 26//15 28//15 35//15 34//15
f 28//15 27//15 36//15 35//15
f 39//21 40//21 44//21 43//21
f 33//16 34//16 38//16 37//16
f 36//20 33//20 37//20 40//20
f 34//19 35//19 39//19 38//19
f 42//15 43//15 44//15 41//15
f 37//22 38//22 42//22 41//22
f 40//23 37//23 41//23 44//23
f 38//24 39//24 43//24 42//24
f 45//25 47//25 48//25 46//25
f 30//26 29//26 48//26 47//26
f 29//27 31//27 46//27 48//27
f 32//28 30//28 47//28 45//28
o Cube.002_Cube.008
v -8.093502 -0.763679 -0.000000
v -8.093502 -0.430099 0.333580
v -8.093502 -0.430099 -0.333580
v -8.093502 -0.096519 0.000000
v -7.970352 -0.763679 -0.000000
v -7.970352 -0.430099 0.333580
v -7.970352 -0.430099 -0.333580
v -7.970352 -0.096519 0.000000
v -8.093502 -0.677577 -0.000000
v -8.093502 -0.430099 0.247478
v -8.093502 -0.182621 0.000000
v -8.093502 -0.430099 -0.247478
v -8.047913 -0.677577 -0.000000
v -8.047913 -0.430099 0.247478
v -8.047913 -0.182621 0.000000
v -8.047913 -0.430099 -0.247478
v -8.002703 -0.518873 -0.000000
v -8.002703 -0.430099 0.088774
v -8.002703 -0.341325 0.000000
v -8.002703 -0.430099 -0.088774
v -6.193905 -0.303545 0.000000
v -6.193905 -0.430099 -0.126554
v -6.193905 -0.430099 0.126554
v -6.193905 -0.556653 -0.000000
vn -1.0000 0.0000 0.0000
vn 0.0000 0.7071 -0.7071
vn 0.0821 0.7047 -0.7047
vn 0.0000 -0.7071 0.7071
vn 0.0000 -0.7071 -0.7071
vn 0.0000 0.7071 0.7071
vn -0.9276 -0.2642 0.2642
vn -0.9276 0.2642 -0.2642
vn -0.9276 0.2642 0.2642
vn -0.9276 -0.2642 -0.2642
vn 1.0000 0.0000 0.0000
vn 0.0821 -0.7047 0.7047
vn 0.0821 -0.7047 -0.7047
vn 0.0821 0.7047 0.7047
usemtl None
s off
f 49//29 50//29 58//29 57//29
f 52//30 56//30 55//30 51//30
f 55//31 56//31 69//31 70//31
f 54//32 50//32 49//32 53//32
f 49//33 51//33 55//33 53//33
f 54//34 56//34 52//34 50//34
f 59//32 60//32 64//32 63//32
f 51//29 49//29 57//29 60//29
f 50//29 52//29 59//29 58//29
f 52//29 51//29 60//29 59//29
f 63//35 64//35 68//35 67//35
f 57//30 58//30 62//30 61//30
f 60//34 57//34 61//34 64//34
f 58//33 59//33 63//33 62//33
f 66//29 67//29 68//29 65//29
f 61//36 62//36 66//36 65//36
f 64//37 61//37 65//37 68//37
f 62//38 63//38 67//38 66//38
f 69//39 71//39 72//39 70//39
f 54//40 53//40 72//40 71//40
f 53//41 55//41 70//41 72//41
f 56//42 54//42 71//42 69//42
o Cube.001
v -8.093502 0.096519 -0.000000
v -8.093502 0.430099 0.333580
v -8.093502 0.430099 -0.333580
v -8.093502 0.763679 0.000000
v -7.970352 0.096519 -0.000000
v -7.970352 0.430099 0.333580
v -7.970352 0.430099 -0.333580
v -7.970352 0.763679 0.000000
v -8.093502 0.182621 -0.000000
v -8.093502 0.430099 0.247478
v -8.093502 0.677577 0.000000
v -8.093502 0.430099 -0.247478
v -8.047913 0.182621 -0.000000
v -8.047913 0.430099 0.247478
v -8.047913 0.677577 0.000000
v -8.047913 0.430099 -0.247478
v -8.002703 0.341325 -0.000000
v -8.002703 0.430099 0.088774
v -8.002703 0.518873 0.000000
v -8.002703 0.430099 -0.088774
v -6.193905 0.556653 0.000000
v -6.193905 0.430099 -0.126554
v -6.193905 0.430099 0.126554
v -6.193905 0.303545 -0.000000
vn -1.0000 0.0000 0.0000
vn 0.0000 0.7071 -0.7071
vn 0.0821 0.7047 -0.7047
vn 0.0000 -0.7071 0.7071
vn 0.0000 -0.7071 -0.7071
vn 0.0000 0.7071 0.7071
vn -0.9276 -0.2642 0.2642
vn -0.9276 0.2642 -0.2642
vn -0.9276 0.2642 0.2642
vn -0.9276 -0.2642 -0.2642
vn 1.0000 0.0000 0.0000
vn 0.0821 -0.7047 0.7047
vn 0.0821 -0.7047 -0.7047
vn 0.0821 0.7047 0.7047
usemtl None
s off
f 73//43 74//43 82//43 81//43
f 76//44 80//44 79//44 75//44
f 79//45 80//45 93//45 94//45
f 78//46 74//46 73//46 77//46
f 73//47 75//47 79//47 77//47
f 78//48 80//48 76//48 74//48
f 83//46 84//46 88//46 87//46
f 75//43 73//43 81//43 84//43
f 74//43 76//43 83//43 82//43
f 76//43 75//43 84//43 83//43
f 87//49 88//49 92//49 91//49
f 81//44 82//44 86//44 85//44
f 84//48 81//48 85//48 88//48
f 82//47 83//47 87//47 86//47
f 90//43 91//43 92//43 89//43
f 85//50 86//50 90//50 89//50
f 88//51 85//51 89//51 92//51
f 86//52 87//52 91//52 90//52
f 93//53 95//53 96//53 94//53
f 78//54 77//54 96//54 95//54
f 77//55 79//55 94//55 96//55
f 80//56 78//56 95//56 93//56
o Cube
v 2.509541 0.000000 -1.414213
v 2.509541 -1.414214 -0.000000
v -7.906659 -0.317077 -0.000000
v -7.906658 0.000000 -0.317077
v 2.509545 1.414213 0.000000
v 2.509536 -0.000001 1.414214
v -7.906660 0.000000 0.317077
v -7.906659 0.317077 -0.000000
v 3.214437 -0.000001 -1.237075
v 3.214437 -1.237078 0.000002
v 3.214440 1.237075 0.000002
v 3.214432 -0.000002 1.237079
v 4.521463 -0.000004 -1.055022
v 4.521463 -1.055031 0.000005
v 4.521466 1.055023 0.000005
v 4.521460 -0.000004 1.055032
v 4.521463 -0.000004 -1.055022
v 4.521463 -1.055031 0.000005
v 4.521466 1.055023 0.000005
v 4.521460 -0.000004 1.055032
v 6.066074 -0.000004 -0.626662
v 6.066074 -0.626671 0.000005
v 6.066075 0.626664 0.000005
v 6.066072 -0.000004 0.626673
v 8.356772 -0.000006 -0.296001
v 8.356772 -0.296016 0.000009
v 8.356772 0.296004 0.000009
v 8.356771 -0.000006 0.296019
vn -0.0743 -0.7052 -0.7052
vn -0.0743 0.7052 0.7052
vn 0.1750 -0.6962 -0.6962
vn -0.0743 -0.7052 0.7052
vn -1.0000 0.0000 -0.0000
vn -0.0743 0.7052 -0.7052
vn 0.0980 -0.7037 0.7037
vn 0.1750 0.6962 0.6962
vn 0.1749 -0.6962 0.6962
vn 0.1750 0.6962 -0.6962
vn 0.0000 0.0000 1.0000
vn 0.0980 -0.7037 -0.7037
vn 0.0980 0.7037 0.7037
vn 0.0980 0.7037 -0.7037
vn 0.1924 0.6939 0.6939
vn 0.1015 -0.7035 0.7035
vn 0.1924 0.6939 -0.6939
vn 0.1924 -0.6939 0.6939
vn 0.1924 -0.6939 -0.6939
vn 1.0000 -0.0000 0.0000
vn 0.1015 -0.7035 -0.7035
vn 0.1015 0.7035 0.7035
vn 0.1015 0.7035 -0.7035
usemtl Material
s off
f 97//57 98//57 99//57 100//57
f 101//58 104//58 103//58 102//58
f 98//59 97//59 105//59 106//59
f 98//60 102//60 103//60 99//60
f 99//61 103//61 104//61 100//61
f 101//62 97//62 100//62 104//62
f 108//63 106//63 110//63 112//63
f 101//64 102//64 108//64 107//64
f 102//65 98//65 106//65 108//65
f 97//66 101//66 107//66 105//66
f 112//67 110//67 114//67 116//67
f 106//68 105//68 109//68 110//68
f 107//69 108//69 112//69 111//69
f 105//70 107//70 111//70 109//70
f 115//71 116//71 120//71 119//71
f 110//67 109//67 113//67 114//67
f 111//67 112//67 116//67 115//67
f 109//67 111//67 115//67 113//67
f 120//72 118//72 122//72 124//72
f 113//73 115//73 119//73 117//73
f 116//74 114//74 118//74 120//74
f 114//75 113//75 117//75 118//75
f 121//76 123//76 124//76 122//76
f 118//77 117//77 121//77 122//77
f 119//78 120//78 124//78 123//78
f 117//79 119//79 123//79 121//79
