# Blender v2.74 (sub 0) OBJ File: 'space_debris1.blend'
# www.blender.org
mtllib space_debris1.mtl
o Plane
v -1.000000 0.000000 -0.970952
v 1.000000 0.000000 -0.970952
v 0.637520 0.302125 -2.126021
v 1.041835 0.130236 -2.437789
vn 0.098200 0.969900 0.222800
usemtl None
s 1
f 1//1 2//1 4//1 3//1
o Cone
v -1.000000 0.000000 -1.000000
v -1.000000 0.195090 -0.980785
v -1.000000 0.382683 -0.876520
v -1.000000 0.555570 -0.831470
v -1.000000 0.707107 -0.707107
v -1.037421 0.813177 -0.509404
v -1.000000 0.923880 -0.382683
v -1.000000 0.980785 -0.195090
v -1.000000 1.000000 -0.000000
v -2.980634 0.052706 0.043327
v -1.000000 0.980785 0.195090
v -1.000000 0.923880 0.382683
v -1.000000 0.779413 0.555570
v -1.000000 0.707107 0.707107
v -1.000000 0.555570 0.831470
v -1.000000 0.382683 0.923880
v -1.000000 0.195090 0.980785
v -1.000000 -0.000000 1.000000
v -1.000000 -0.195091 0.980785
v -1.000000 -0.382684 0.923879
v -1.000000 -0.555571 0.831469
v -1.000000 -0.707107 0.707106
v -1.000000 -0.831470 0.555570
v -1.000000 -0.923880 0.382683
v -0.997316 -0.911119 0.208813
v -1.000000 -1.000000 -0.000001
v -1.000000 -0.980785 -0.195091
v -1.000000 -0.923879 -0.382684
v -1.000000 -0.831469 -0.555571
v -1.055761 -0.673036 -0.680713
v -1.000000 -0.555569 -0.831470
v -1.000000 -0.382682 -0.923880
v -1.000000 -0.195089 -0.980786
vn 0.490000 -0.333200 -0.805500
vn -0.999600 0.021200 0.016800
vn 0.491200 -0.170500 -0.854200
vn 0.492800 -0.001600 -0.870100
vn 0.475200 0.253400 -0.842600
vn 0.501700 -0.490800 -0.712200
vn 0.229900 -0.686100 -0.690100
vn 0.501200 -0.709300 -0.495700
vn 0.490000 -0.803900 -0.337000
vn 0.491100 -0.853500 -0.174100
vn 0.463800 -0.877400 0.122700
vn 0.389200 -0.909400 0.146800
vn 0.459300 -0.869000 0.184200
vn 0.499000 -0.723100 0.477500
vn 0.501500 -0.614900 0.608600
vn 0.504000 -0.483000 0.716000
vn 0.506400 -0.333000 0.795400
vn 0.508600 -0.170400 0.844000
vn 0.510500 -0.001600 0.859800
vn 0.512200 0.166900 0.842500
vn 0.513400 0.328700 0.792700
vn 0.514100 0.477500 0.712500
vn 0.491000 0.683600 0.539900
vn 0.472300 0.743900 0.472800
vn 0.493700 0.769000 0.406000
vn 0.512300 0.843100 0.163400
vn 0.510800 0.859700 -0.004500
vn 0.508800 0.843400 -0.172600
vn 0.512500 0.776000 -0.367600
vn 0.331700 0.781400 -0.528500
vn 0.506200 0.632500 -0.586200
vn 0.475400 0.399800 -0.783600
vn 0.448500 0.332100 -0.829700
usemtl None
s 1
f 36//2 14//3 37//4
f 5//5 14//3 6//6
f 35//7 14//3 36//2
f 34//8 14//3 35//7
f 33//9 14//3 34//8
f 32//10 14//3 33//9
f 31//11 14//3 32//10
f 30//12 14//3 31//11
f 29//13 14//3 30//12
f 28//14 14//3 29//13
f 27//15 14//3 28//14
f 26//16 14//3 27//15
f 25//17 14//3 26//16
f 24//18 14//3 25//17
f 23//19 14//3 24//18
f 22//20 14//3 23//19
f 21//21 14//3 22//20
f 20//22 14//3 21//21
f 19//23 14//3 20//22
f 18//24 14//3 19//23
f 17//25 14//3 18//24
f 16//26 14//3 17//25
f 15//27 14//3 16//26
f 13//28 14//3 15//27
f 12//29 14//3 13//28
f 11//30 14//3 12//29
f 10//31 14//3 11//30
f 9//32 14//3 10//31
f 8//33 14//3 9//32
f 7//34 14//3 8//33
f 37//4 14//3 5//5
f 6//6 14//3 7//34
f 5//5 6//6 7//34 8//33 9//32 10//31 11//30 12//29 13//28 15//27 16//26 17//25 18//24 19//23 20//22 21//21 22//20 23//19 24//18 25//17 26//16 27//15 28//14 29//13 30//12 31//11 32//10 33//9 34//8 35//7 36//2 37//4
o Cylinder
v -1.000000 1.000000 0.000000
v 1.000000 1.000000 -0.000000
v -1.000000 0.980785 -0.195090
v 0.994725 0.917075 -0.195090
v -1.000000 0.923880 -0.382683
v 1.000000 0.923879 -0.382683
v -1.000000 0.831470 -0.555570
v 1.000000 0.831470 -0.555570
v -1.000000 0.707107 -0.707107
v 1.000000 0.707107 -0.707107
v -1.000000 0.555570 -0.831470
v 1.000000 0.555570 -0.701584
v -1.000000 0.382683 -0.923879
v 1.000000 0.382683 -0.923880
v -1.000000 0.195090 -0.980785
v 1.000000 0.195090 -0.980785
v -1.000000 0.000000 -1.000000
v 1.000000 0.000000 -1.000000
v -1.000000 -0.195090 -0.980785
v 1.000000 -0.195090 -0.980785
v -1.000000 -0.382683 -0.923880
v 1.000000 -0.382683 -0.817392
v -1.000000 -0.555570 -0.831470
v 1.000000 -0.555570 -0.831470
v -1.000000 -0.707107 -0.707107
v 1.000000 -0.609148 -0.707107
v -1.000000 -0.831470 -0.555570
v 1.000000 -0.831470 -0.555570
v -1.000000 -0.923880 -0.382683
v 1.000000 -0.923880 -0.382683
v -1.000000 -0.980785 -0.195090
v 1.000000 -0.980785 -0.195090
v -1.000000 -1.000000 0.000000
v 1.000000 -0.919683 0.000000
v -0.889331 -0.980785 0.195091
v 1.000000 -0.980785 0.195091
v -1.000000 -0.923879 0.382684
v 1.000000 -0.923879 0.382684
v -1.000000 -0.831469 0.555571
v 1.000000 -0.831469 0.435441
v -1.000000 -0.707106 0.707107
v 1.000000 -0.707106 0.707107
v -1.000000 -0.555570 0.831470
v 1.000000 -0.555570 0.831470
v -1.000000 -0.382683 0.923880
v 0.870603 -0.382683 0.923880
v -1.000000 -0.195089 0.980785
v 1.000000 -0.195090 0.980785
v -1.000000 0.000001 1.000000
v 1.000000 0.000001 1.000000
v -1.000000 0.195091 0.980785
v 1.000000 0.195091 0.980785
v -1.000000 0.382684 0.923879
v 0.908814 0.382684 0.923879
v -1.000000 0.555571 0.831469
v 1.000000 0.555571 0.831469
v -1.000000 0.707108 0.707106
v 1.000000 0.707108 0.707106
v -1.000000 0.831470 0.555569
v 1.000000 0.831470 0.555569
v -1.000000 0.923880 0.382682
v 0.897567 0.792961 0.248119
v -1.000000 0.980786 0.195089
v 1.000000 0.980785 0.195089
vn -0.689000 0.722500 -0.056600
vn 0.654300 0.754700 -0.048200
vn 0.653900 0.744300 -0.135500
vn -0.681600 0.717900 -0.141500
vn 0.652300 0.724300 -0.223300
vn -0.689100 0.689500 -0.222800
vn 0.687000 0.610300 -0.394400
vn -0.687900 0.602500 -0.404700
vn 0.600800 0.476600 -0.641700
vn -0.691800 0.421900 -0.585900
vn 0.603300 0.425400 -0.674600
vn -0.682400 0.385400 -0.621100
vn 0.645100 0.384200 -0.660400
vn -0.689900 0.354300 -0.631300
vn 0.690600 0.146900 -0.708200
vn -0.686600 0.137500 -0.713900
vn 0.691100 0.003800 -0.722800
vn -0.686100 -0.004600 -0.727400
vn 0.645700 -0.236000 -0.726200
vn -0.687800 -0.229100 -0.688800
vn 0.624500 -0.286600 -0.726500
vn -0.679400 -0.275800 -0.679900
vn 0.555800 -0.437500 -0.706800
vn -0.694400 -0.381300 -0.610300
vn 0.650400 -0.548800 -0.525000
vn -0.677800 -0.529100 -0.510500
vn 0.660400 -0.591400 -0.462700
vn -0.685200 -0.572400 -0.450300
vn 0.689400 -0.672400 -0.269200
vn -0.683700 -0.675200 -0.276800
vn 0.643700 -0.762700 -0.062000
vn -0.685100 -0.725300 -0.066900
vn 0.644100 -0.764900 0.007700
vn -0.696000 -0.717900 0.014300
vn 0.643100 -0.761600 0.079700
vn -0.448100 -0.890200 0.081500
vn 0.615900 -0.690200 0.379900
vn -0.702800 -0.614900 0.357700
vn 0.636200 -0.626100 0.450700
vn -0.677000 -0.605900 0.417900
vn 0.657200 -0.566200 0.497500
vn -0.684600 -0.555500 0.472000
vn 0.701300 -0.401400 0.589100
vn -0.684000 -0.408000 0.604700
vn 0.413800 -0.344100 0.842800
vn -0.684300 -0.282600 0.672100
vn 0.699600 -0.118000 0.704700
vn -0.684800 -0.146500 0.713900
vn 0.680300 0.003800 0.732900
vn -0.685200 -0.004600 0.728300
vn 0.697700 0.130400 0.704400
vn -0.685700 0.137300 0.714800
vn 0.487400 0.333700 0.806800
vn -0.686100 0.274100 0.673800
vn 0.697800 0.404800 0.590900
vn -0.686600 0.400300 0.606900
vn 0.680500 0.514600 0.521600
vn -0.687000 0.511000 0.516600
vn 0.648900 0.688500 0.323800
vn -0.694500 0.662800 0.279800
vn 0.430100 0.800900 0.416600
vn -0.694600 0.647500 0.313600
vn 0.612600 0.729500 0.304200
vn -0.700000 0.640800 0.315300
usemtl None
s 1
f 38//35 39//36 41//37 40//38
f 40//38 41//37 43//39 42//40
f 42//40 43//39 45//41 44//42
f 44//42 45//41 47//43 46//44
f 46//44 47//43 49//45 48//46
f 48//46 49//45 51//47 50//48
f 50//48 51//47 53//49 52//50
f 52//50 53//49 55//51 54//52
f 54//52 55//51 57//53 56//54
f 56//54 57//53 59//55 58//56
f 58//56 59//55 61//57 60//58
f 60//58 61//57 63//59 62//60
f 62//60 63//59 65//61 64//62
f 64//62 65//61 67//63 66//64
f 66//64 67//63 69//65 68//66
f 68//66 69//65 71//67 70//68
f 70//68 71//67 73//69 72//70
f 72//70 73//69 75//71 74//72
f 74//72 75//71 77//73 76//74
f 76//74 77//73 79//75 78//76
f 78//76 79//75 81//77 80//78
f 80//78 81//77 83//79 82//80
f 82//80 83//79 85//81 84//82
f 84//82 85//81 87//83 86//84
f 86//84 87//83 89//85 88//86
f 88//86 89//85 91//87 90//88
f 90//88 91//87 93//89 92//90
f 92//90 93//89 95//91 94//92
f 94//92 95//91 97//93 96//94
f 96//94 97//93 99//95 98//96
f 41//37 39//36 101//97 99//95 97//93 95//91 93//89 91//87 89//85 87//83 85//81 83//79 81//77 79//75 77//73 75//71 73//69 71//67 69//65 67//63 65//61 63//59 61//57 59//55 57//53 55//51 53//49 51//47 49//45 47//43 45//41 43//39
f 100//98 101//97 39//36 38//35
f 98//96 99//95 101//97 100//98
f 38//35 40//38 42//40 44//42 46//44 48//46 50//48 52//50 54//52 56//54 58//56 60//58 62//60 64//62 66//64 68//66 70//68 72//70 74//72 76//74 78//76 80//78 82//80 84//82 86//84 88//86 90//88 92//90 94//92 96//94 98//96 100//98
o Plane.001
v 0.108815 0.058073 1.373825
v 0.991843 0.042776 1.911783
v -1.000000 0.000000 0.998186
v 1.000000 0.000000 0.998186
vn 0.023500 0.994900 -0.097900
usemtl None
s 1
f 102//99 103//99 105//99 104//99
